<?xml version="1.0" encoding="utf-8"?>
<!-- Generator: Adobe Illustrator 25.0.1, SVG Export Plug-In . SVG Version: 6.00 Build 0)  -->
<svg version="1.1" id="Layer_1" xmlns="http://www.w3.org/2000/svg" xmlns:xlink="http://www.w3.org/1999/xlink" x="0px" y="0px"
	 viewBox="0 0 533.9 167.1" style="enable-background:new 0 0 533.9 167.1;" xml:space="preserve">
<style type="text/css">
	.st0{fill:#00A092;}
	.st1{fill:#8FC3A0;}
	.st2{fill:#CAD4B2;}
	.st3{fill:url(#SVGID_1_);}
	.st4{fill:#627C70;}
</style>
<g>
	<path class="st0" d="M41.2,127.2c-7.8-0.1-14-6.1-14.1-13.9c-0.1-8,5.8-14.3,13.8-14.5c2.5-0.1,4.9-0.3,7.4-0.7
		c8.8-1.7,14.2-7.3,15.6-16.1c0.3-2,0.5-3.9,0.5-5.9c0.1-8.4,6.3-14.6,14.7-14.8c2.5,0,4.9-0.1,7.3-0.7c8.9-2.2,14.3-8.4,15.1-17.6
		c0.2-2,0.3-4.1,0.4-6.1c0.4-7.2,6.9-13,14.5-12.9c7.3,0.1,13.5,6.2,14,13.2c0.5,8.7-6,15.6-14.9,15.5c-2.5,0-4.9,0.2-7.3,0.8
		c-8.4,2.1-13.5,8-14.7,16.6c-0.3,2.5-0.2,4.9-0.5,7.4c-1,7.4-6.9,12.4-14.4,12.5c-2.7,0-5.4,0.3-8,1c-8.9,2.3-14.3,9.1-14.7,18.4
		c-0.1,1.8-0.1,3.7-0.4,5.5C54.5,122.3,48.7,127.3,41.2,127.2z"/>
	<path class="st1" d="M41.4,90c-7.7,0-14.1-6-14.3-13.5c-0.2-8.3,5.7-14.7,14.1-15.1c2.5-0.1,5.1-0.1,7.6-0.7
		c9.6-2.2,15.2-9.1,15.6-19.4c0.1-1.8,0-3.7,0.4-5.5C66,28.6,72.3,23.6,79.7,24c7,0.4,12.9,6.3,13.3,13.3
		c0.5,7.4-4.5,13.7-11.6,15.1c-2.7,0.5-5.5,0.2-8.2,0.7C62.4,54.9,56.1,62,55.8,72.9c0,1.7-0.1,3.4-0.3,5.1C54.4,85,48.5,90,41.4,90
		z"/>
	<path class="st2" d="M27.1,38.2c0-8,6.4-14.2,14.5-14.2c7.8,0,14.2,6.5,14.2,14.3s-6.7,14.5-14.4,14.4
		C33.3,52.6,27.1,46.2,27.1,38.2z"/>
	
		<linearGradient id="SVGID_1_" gradientUnits="userSpaceOnUse" x1="108.976" y1="44.499" x2="123.331" y2="69.3626" gradientTransform="matrix(1 0 0 -1 0 170)">
		<stop  offset="0" style="stop-color:#00A092"/>
		<stop  offset="8.183906e-02" style="stop-color:#1AA494"/>
		<stop  offset="0.1791" style="stop-color:#31A896"/>
		<stop  offset="0.2702" style="stop-color:#3FAA98"/>
		<stop  offset="0.3481" style="stop-color:#44AB98"/>
		<stop  offset="0.4807" style="stop-color:#7CB49C"/>
		<stop  offset="0.5812" style="stop-color:#A9BCA0"/>
		<stop  offset="0.6605" style="stop-color:#A6BBA0"/>
		<stop  offset="0.7236" style="stop-color:#9CBA9F"/>
		<stop  offset="0.7811" style="stop-color:#8BB79E"/>
		<stop  offset="0.8353" style="stop-color:#73B39C"/>
		<stop  offset="0.8872" style="stop-color:#55AE99"/>
		<stop  offset="0.9374" style="stop-color:#2FA896"/>
		<stop  offset="0.9853" style="stop-color:#04A192"/>
		<stop  offset="0.989" style="stop-color:#00A092"/>
	</linearGradient>
	<path class="st3" d="M116.1,98.8c8.1,0,14.3,6.2,14.3,14.4c0,8-6.3,14.2-14.2,14.3c-8,0-14.3-6.4-14.3-14.4
		C101.9,104.9,108.1,98.8,116.1,98.8z"/>
	<path class="st2" d="M116.1,98.8c8.1,0,14.3,6.2,14.3,14.4c0,8-6.3,14.2-14.2,14.3c-8,0-14.3-6.4-14.3-14.4
		C101.9,104.9,108.1,98.8,116.1,98.8z"/>
	<path class="st1" d="M78.6,127.3c-18.7-0.1-18.6-28-0.2-28.5c11.6,0.3,22.4-6.1,23.1-18.5c-2.3-22,26.8-26.7,28.9-4.6
		c-0.7,13.4-10.8,14.1-21.5,15.1C82.7,96.2,103.8,125.5,78.6,127.3z"/>
</g>
<g>
	<path class="st4" d="M199.9,73.7c2.4,2.9,3.6,6.7,3.6,11.4c0,13.8-10.3,20.6-30.9,20.6c-7.1,0-12.9-0.2-17.5-0.4h-0.1l0.8-21.7
		l-0.8-50.4l22.4-0.1c7,0,12.4,1.5,16.2,4.5c3.9,3,5.8,7.4,5.8,13.2c0,4-0.9,7.5-2.8,10.4c-1.9,2.9-4.5,5.1-8,6.6
		C193.8,68.8,197.5,70.8,199.9,73.7z M187.4,93.6c3-2.1,4.5-5.2,4.5-9.2c0-6.4-4.2-10.2-12.5-11.3l-13.1,0.1l-0.1,9.4l0.3,13.8
		c2.9,0.2,5.6,0.3,8.1,0.3C180.1,96.7,184.4,95.7,187.4,93.6z M184.6,44.5c-2-1.6-5.4-2.4-10.2-2.4h-7.6l-0.3,22.1l11.6,0.3
		c3.3-0.8,5.7-2.2,7.3-4.2c1.6-2,2.4-4.7,2.4-8.1C187.6,48.6,186.6,46,184.6,44.5z"/>
	<path class="st4" d="M246.4,56.2c3,2.5,4.5,5.9,4.5,10.3c0,1.3-0.2,5.8-0.7,13.5c-0.4,7.5-0.7,11.9-0.7,13.1c0,1.4,0.2,2.4,0.7,3
		c0.5,0.6,1.3,0.8,2.5,0.8c0.7,0,1.9-0.1,3.4-0.4l1,0.8l-1.1,6.3c-2.2,1.3-4.5,2.2-7.1,2.5c-2.3-0.2-4.2-1.1-5.6-2.5
		c-1.4-1.5-2.3-3.4-2.6-5.8H240c-3.8,4-7.7,6.8-11.7,8.4c-5.2-0.1-9.2-1.4-12.2-4c-3-2.6-4.4-6.2-4.4-10.7c0-6.7,3.6-10.8,10.9-12.5
		l17.7-3.9l0.1-6.1c0-2.8-0.7-4.9-2.1-6.3c-1.4-1.4-3.4-2.1-6-2.1c-2.5,0-5.1,0.6-7.6,1.7c-2.5,1.2-5.3,3-8.4,5.4l-0.9-0.6l-1.5-8
		c6.6-4.5,13.3-6.7,20.2-6.7C239.3,52.5,243.4,53.8,246.4,56.2z M225.8,85.2c-1.3,0.3-2.3,0.8-2.9,1.5c-0.6,0.7-0.9,1.8-0.9,3.3
		c0,2.2,0.6,4,1.9,5.3c1.2,1.3,2.9,1.9,5,1.9c3.5,0,7.3-2.3,11.2-6.8l0.3-8.6L225.8,85.2z"/>
	<path class="st4" d="M272.2,60.5l11.2,32.9h0.8l11.2-31.9l1.9-8h9.9l-17.8,49.1c-1.8,5.1-3.8,9.1-5.9,12.2c-2.2,3-4.8,5.4-8,7.2
		c-3.2,1.8-7.3,3.3-12.4,4.6h-1c-1.8-1.8-3.4-4-4.7-6.7l0.3-1.2c5.3-1,9.5-2.4,12.6-4.3c3.1-1.9,5.9-4.9,8.4-9.2l-18.8-51.5
		l10.8-0.6L272.2,60.5z"/>
	<path class="st4" d="M345.1,56.2c3,2.5,4.5,5.9,4.5,10.3c0,1.3-0.2,5.8-0.7,13.5c-0.4,7.5-0.7,11.9-0.7,13.1c0,1.4,0.2,2.4,0.7,3
		c0.5,0.6,1.3,0.8,2.5,0.8c0.7,0,1.9-0.1,3.4-0.4l1,0.8l-1.1,6.3c-2.2,1.3-4.5,2.2-7.1,2.5c-2.3-0.2-4.2-1.1-5.6-2.5
		c-1.4-1.5-2.3-3.4-2.6-5.8h-0.8c-3.8,4-7.7,6.8-11.7,8.4c-5.2-0.1-9.2-1.4-12.2-4c-3-2.6-4.4-6.2-4.4-10.7
		c0-6.7,3.6-10.8,10.9-12.5l17.7-3.9l0.1-6.1c0-2.8-0.7-4.9-2.1-6.3c-1.4-1.4-3.4-2.1-6-2.1c-2.5,0-5.1,0.6-7.6,1.7
		c-2.5,1.2-5.3,3-8.4,5.4l-0.9-0.6l-1.5-8c6.6-4.5,13.3-6.7,20.2-6.7C338.1,52.5,342.1,53.8,345.1,56.2z M324.5,85.2
		c-1.3,0.3-2.3,0.8-2.9,1.5c-0.6,0.7-0.9,1.8-0.9,3.3c0,2.2,0.6,4,1.9,5.3c1.2,1.3,2.9,1.9,5,1.9c3.5,0,7.3-2.3,11.2-6.8l0.3-8.6
		L324.5,85.2z"/>
	<path class="st4" d="M398.5,71.3c0.1-2.8-0.6-5.1-2-6.7c-1.4-1.6-3.4-2.4-6-2.4c-4.3,0-8.8,2.2-13.5,6.7L377,82.6l0.7,22.7h-11.4
		l0.7-21.7l-0.6-29.3l10.9-1l-0.1,7.5h0.8c4.4-3.9,9-6.5,13.8-8c5.8,0,10.1,1.3,13.1,3.9c3,2.6,4.4,6.4,4.3,11.2l-0.3,14.6l0.6,22.7
		h-11.6L398.5,71.3z"/>
	<path class="st4" d="M455.4,56.2c3,2.5,4.5,5.9,4.5,10.3c0,1.3-0.2,5.8-0.7,13.5c-0.4,7.5-0.7,11.9-0.7,13.1c0,1.4,0.2,2.4,0.7,3
		c0.5,0.6,1.3,0.8,2.5,0.8c0.7,0,1.9-0.1,3.4-0.4l1,0.8l-1.1,6.3c-2.2,1.3-4.5,2.2-7.1,2.5c-2.3-0.2-4.2-1.1-5.6-2.5
		c-1.4-1.5-2.3-3.4-2.6-5.8H449c-3.8,4-7.7,6.8-11.7,8.4c-5.2-0.1-9.2-1.4-12.2-4c-3-2.6-4.4-6.2-4.4-10.7c0-6.7,3.6-10.8,10.9-12.5
		l17.7-3.9l0.1-6.1c0-2.8-0.7-4.9-2.1-6.3c-1.4-1.4-3.4-2.1-6-2.1c-2.5,0-5.1,0.6-7.6,1.7c-2.5,1.2-5.3,3-8.4,5.4l-0.9-0.6l-1.5-8
		c6.6-4.5,13.3-6.7,20.2-6.7C448.3,52.5,452.4,53.8,455.4,56.2z M434.8,85.2c-1.3,0.3-2.3,0.8-2.9,1.5c-0.6,0.7-0.9,1.8-0.9,3.3
		c0,2.2,0.6,4,1.9,5.3c1.2,1.3,2.9,1.9,5,1.9c3.5,0,7.3-2.3,11.2-6.8l0.3-8.6L434.8,85.2z"/>
	<path class="st4" d="M503.4,94.6l1.1,0.8l-1.1,7.2c-4.1,1.9-7.9,3.1-11.4,3.4c-4.6-0.7-8-2.3-10.1-4.7c-2.1-2.4-3.1-5.8-3.1-10.3
		l0.4-8.1l-0.1-21.9H472l-0.4-0.7l0.6-6.6h6.8v-8.2l10.1-3.8l1,0.9l-0.2,11.1h14.4l0.4,0.8l-0.6,6.5h-14.5l-0.6,28.2
		c-0.1,2.8,0.4,4.7,1.4,5.8c1,1.1,2.7,1.6,5.1,1.6C498,96.6,500.7,95.9,503.4,94.6z"/>
</g>
</svg>
