<?xml version="1.0" encoding="utf-8"?>
<!-- Generator: Adobe Illustrator 25.0.1, SVG Export Plug-In . SVG Version: 6.00 Build 0)  -->
<svg version="1.1" id="Layer_1" xmlns="http://www.w3.org/2000/svg" xmlns:xlink="http://www.w3.org/1999/xlink" x="0px" y="0px"
	 viewBox="0 0 388.4 55.5" style="enable-background:new 0 0 388.4 55.5;" xml:space="preserve">
<style type="text/css">
	.st0{fill:#FFFFFF;}
</style>
<g>
	<path class="st0" d="M22.7,45.4c-2.4,0-4.3-1.9-4.3-4.2c0-2.4,1.8-4.3,4.2-4.4c0.8,0,1.5-0.1,2.3-0.2c2.7-0.5,4.3-2.2,4.7-4.9
		c0.1-0.6,0.2-1.2,0.2-1.8c0-2.6,1.9-4.4,4.5-4.5c0.8,0,1.5,0,2.2-0.2c2.7-0.7,4.3-2.6,4.6-5.4c0.1-0.6,0.1-1.2,0.1-1.9
		c0.1-2.2,2.1-4,4.4-3.9c2.2,0,4.1,1.9,4.3,4c0.2,2.6-1.8,4.7-4.5,4.7c-0.8,0-1.5,0.1-2.2,0.2c-2.6,0.6-4.1,2.4-4.5,5
		c-0.1,0.8-0.1,1.5-0.2,2.3c-0.3,2.3-2.1,3.8-4.4,3.8c-0.8,0-1.6,0.1-2.4,0.3c-2.7,0.7-4.3,2.8-4.5,5.6c0,0.5,0,1.1-0.1,1.7
		C26.8,43.9,25,45.4,22.7,45.4z"/>
	<path class="st0" d="M22.8,34.1c-2.3,0-4.3-1.8-4.3-4.1c-0.1-2.5,1.7-4.5,4.3-4.6c0.8,0,1.6,0,2.3-0.2c2.9-0.7,4.6-2.8,4.7-5.9
		c0-0.5,0-1.1,0.1-1.7c0.4-2.2,2.3-3.7,4.5-3.6c2.1,0.1,3.9,1.9,4,4c0.2,2.3-1.4,4.2-3.5,4.6c-0.8,0.2-1.7,0.1-2.5,0.2
		c-3.3,0.5-5.2,2.7-5.3,6c0,0.5,0,1-0.1,1.6C26.8,32.6,25,34.1,22.8,34.1z"/>
	<path class="st0" d="M18.5,18.3c0-2.4,1.9-4.3,4.4-4.3c2.4,0,4.3,2,4.3,4.3s-2,4.4-4.4,4.4C20.3,22.7,18.5,20.8,18.5,18.3z"/>
	<path class="st0" d="M45.5,36.8c2.5,0,4.3,1.9,4.3,4.4c0,2.4-1.9,4.3-4.3,4.3c-2.4,0-4.3-1.9-4.3-4.4
		C41.2,38.6,43.1,36.8,45.5,36.8z"/>
	<path class="st0" d="M45.5,36.8c2.5,0,4.3,1.9,4.3,4.4c0,2.4-1.9,4.3-4.3,4.3c-2.4,0-4.3-1.9-4.3-4.4
		C41.2,38.6,43.1,36.8,45.5,36.8z"/>
	<path class="st0" d="M34.1,45.4c-5.7,0-5.7-8.5-0.1-8.7c3.5,0.1,6.8-1.9,7-5.6c-0.7-6.7,8.1-8.1,8.8-1.4c-0.2,4.1-3.3,4.3-6.5,4.6
		C35.4,36,41.8,44.9,34.1,45.4z"/>
</g>
<g>
	<path class="st0" d="M76,30.1c0.7,0.9,1.1,2,1.1,3.5c0,4.2-3.1,6.3-9.4,6.3c-2.2,0-3.9-0.1-5.3-0.1h0l0.2-6.6l-0.2-15.3l6.8,0
		c2.1,0,3.8,0.5,4.9,1.4c1.2,0.9,1.8,2.3,1.8,4c0,1.2-0.3,2.3-0.9,3.2s-1.4,1.6-2.4,2C74.1,28.6,75.3,29.2,76,30.1z M72.2,36.2
		c0.9-0.6,1.4-1.6,1.4-2.8c0-1.9-1.3-3.1-3.8-3.4l-4,0l0,2.9l0.1,4.2c0.9,0.1,1.7,0.1,2.5,0.1C70,37.1,71.3,36.8,72.2,36.2z
		 M71.3,21.2c-0.6-0.5-1.6-0.7-3.1-0.7h-2.3l-0.1,6.7l3.5,0.1c1-0.2,1.7-0.7,2.2-1.3s0.7-1.4,0.7-2.5C72.3,22.5,72,21.7,71.3,21.2z"
		/>
	<path class="st0" d="M90.1,24.8c0.9,0.8,1.4,1.8,1.4,3.1c0,0.4-0.1,1.8-0.2,4.1c-0.1,2.3-0.2,3.6-0.2,4c0,0.4,0.1,0.7,0.2,0.9
		s0.4,0.2,0.8,0.2c0.2,0,0.6,0,1-0.1l0.3,0.2l-0.3,1.9c-0.7,0.4-1.4,0.7-2.2,0.8c-0.7-0.1-1.3-0.3-1.7-0.8c-0.4-0.5-0.7-1-0.8-1.8
		h-0.2c-1.2,1.2-2.3,2.1-3.6,2.6c-1.6,0-2.8-0.4-3.7-1.2c-0.9-0.8-1.3-1.9-1.3-3.3c0-2,1.1-3.3,3.3-3.8l5.4-1.2l0-1.9
		c0-0.9-0.2-1.5-0.6-1.9c-0.4-0.4-1-0.6-1.8-0.6c-0.8,0-1.6,0.2-2.3,0.5c-0.8,0.4-1.6,0.9-2.6,1.6l-0.3-0.2l-0.5-2.4
		c2-1.4,4-2,6.1-2C88,23.7,89.2,24.1,90.1,24.8z M83.9,33.6c-0.4,0.1-0.7,0.2-0.9,0.5s-0.3,0.5-0.3,1c0,0.7,0.2,1.2,0.6,1.6
		c0.4,0.4,0.9,0.6,1.5,0.6c1.1,0,2.2-0.7,3.4-2.1l0.1-2.6L83.9,33.6z"/>
	<path class="st0" d="M98,26.1l3.4,10h0.2l3.4-9.7l0.6-2.4h3l-5.4,14.9c-0.5,1.6-1.2,2.8-1.8,3.7c-0.7,0.9-1.5,1.6-2.4,2.2
		c-1,0.5-2.2,1-3.8,1.4h-0.3c-0.5-0.5-1-1.2-1.4-2l0.1-0.4c1.6-0.3,2.9-0.7,3.8-1.3c0.9-0.6,1.8-1.5,2.6-2.8L94.2,24l3.3-0.2
		L98,26.1z"/>
	<path class="st0" d="M120.1,24.8c0.9,0.8,1.4,1.8,1.4,3.1c0,0.4-0.1,1.8-0.2,4.1c-0.1,2.3-0.2,3.6-0.2,4c0,0.4,0.1,0.7,0.2,0.9
		s0.4,0.2,0.8,0.2c0.2,0,0.6,0,1-0.1l0.3,0.2l-0.3,1.9c-0.7,0.4-1.4,0.7-2.2,0.8c-0.7-0.1-1.3-0.3-1.7-0.8c-0.4-0.5-0.7-1-0.8-1.8
		h-0.2c-1.2,1.2-2.3,2.1-3.6,2.6c-1.6,0-2.8-0.4-3.7-1.2c-0.9-0.8-1.3-1.9-1.3-3.3c0-2,1.1-3.3,3.3-3.8l5.4-1.2l0-1.9
		c0-0.9-0.2-1.5-0.6-1.9c-0.4-0.4-1-0.6-1.8-0.6c-0.8,0-1.6,0.2-2.3,0.5c-0.8,0.4-1.6,0.9-2.6,1.6l-0.3-0.2l-0.5-2.4
		c2-1.4,4-2,6.1-2C118,23.7,119.2,24.1,120.1,24.8z M113.9,33.6c-0.4,0.1-0.7,0.2-0.9,0.5c-0.2,0.2-0.3,0.5-0.3,1
		c0,0.7,0.2,1.2,0.6,1.6c0.4,0.4,0.9,0.6,1.5,0.6c1.1,0,2.2-0.7,3.4-2.1l0.1-2.6L113.9,33.6z"/>
	<path class="st0" d="M136.4,29.4c0-0.9-0.2-1.6-0.6-2c-0.4-0.5-1-0.7-1.8-0.7c-1.3,0-2.7,0.7-4.1,2v4.2l0.2,6.9h-3.5l0.2-6.6
		l-0.2-8.9l3.3-0.3l0,2.3h0.2c1.3-1.2,2.7-2,4.2-2.4c1.8,0,3.1,0.4,4,1.2c0.9,0.8,1.3,1.9,1.3,3.4l-0.1,4.4l0.2,6.9h-3.5L136.4,29.4
		z"/>
	<path class="st0" d="M153.7,24.8c0.9,0.8,1.4,1.8,1.4,3.1c0,0.4-0.1,1.8-0.2,4.1c-0.1,2.3-0.2,3.6-0.2,4c0,0.4,0.1,0.7,0.2,0.9
		c0.2,0.2,0.4,0.2,0.8,0.2c0.2,0,0.6,0,1-0.1l0.3,0.2l-0.3,1.9c-0.7,0.4-1.4,0.7-2.2,0.8c-0.7-0.1-1.3-0.3-1.7-0.8
		c-0.4-0.5-0.7-1-0.8-1.8h-0.2c-1.2,1.2-2.3,2.1-3.6,2.6c-1.6,0-2.8-0.4-3.7-1.2c-0.9-0.8-1.3-1.9-1.3-3.3c0-2,1.1-3.3,3.3-3.8
		l5.4-1.2l0-1.9c0-0.9-0.2-1.5-0.6-1.9c-0.4-0.4-1-0.6-1.8-0.6c-0.8,0-1.6,0.2-2.3,0.5c-0.8,0.4-1.6,0.9-2.6,1.6l-0.3-0.2l-0.5-2.4
		c2-1.4,4-2,6.1-2C151.5,23.7,152.8,24.1,153.7,24.8z M147.4,33.6c-0.4,0.1-0.7,0.2-0.9,0.5c-0.2,0.2-0.3,0.5-0.3,1
		c0,0.7,0.2,1.2,0.6,1.6c0.4,0.4,0.9,0.6,1.5,0.6c1.1,0,2.2-0.7,3.4-2.1l0.1-2.6L147.4,33.6z"/>
	<path class="st0" d="M168.3,36.5l0.3,0.2l-0.3,2.2c-1.2,0.6-2.4,0.9-3.5,1c-1.4-0.2-2.4-0.7-3.1-1.4c-0.6-0.7-0.9-1.8-0.9-3.1
		l0.1-2.5l0-6.7h-2.2l-0.1-0.2l0.2-2h2.1v-2.5l3.1-1.2l0.3,0.3l-0.1,3.4h4.4l0.1,0.2l-0.2,2h-4.4l-0.2,8.6c0,0.9,0.1,1.4,0.4,1.8
		s0.8,0.5,1.6,0.5C166.6,37.1,167.5,36.9,168.3,36.5z"/>
</g>
</svg>
