<svg xmlns="http://www.w3.org/2000/svg" viewBox="0 0 533.9 167.1" xmlns:v="https://vecta.io/nano"><path d="M41.2 127.2c-7.8-.1-14-6.1-14.1-13.9-.1-8 5.8-14.3 13.8-14.5 2.5-.1 4.9-.3 7.4-.7 8.8-1.7 14.2-7.3 15.6-16.1.3-2 .5-3.9.5-5.9.1-8.4 6.3-14.6 14.7-14.8 2.5 0 4.9-.1 7.3-.7 8.9-2.2 14.3-8.4 15.1-17.6.2-2 .3-4.1.4-6.1.4-7.2 6.9-13 14.5-12.9 7.3.1 13.5 6.2 14 13.2.5 8.7-6 15.6-14.9 15.5-2.5 0-4.9.2-7.3.8-8.4 2.1-13.5 8-14.7 16.6-.3 2.5-.2 4.9-.5 7.4-1 7.4-6.9 12.4-14.4 12.5-2.7 0-5.4.3-8 1-8.9 2.3-14.3 9.1-14.7 18.4-.1 1.8-.1 3.7-.4 5.5-1 7.4-6.8 12.4-14.3 12.3z" fill="#00a092"/><path d="M41.4 90c-7.7 0-14.1-6-14.3-13.5-.2-8.3 5.7-14.7 14.1-15.1 2.5-.1 5.1-.1 7.6-.7 9.6-2.2 15.2-9.1 15.6-19.4.1-1.8 0-3.7.4-5.5C66 28.6 72.3 23.6 79.7 24c7 .4 12.9 6.3 13.3 13.3.5 7.4-4.5 13.7-11.6 15.1-2.7.5-5.5.2-8.2.7-10.8 1.8-17.1 8.9-17.4 19.8 0 1.7-.1 3.4-.3 5.1-1.1 7-7 12-14.1 12z" fill="#8fc3a0"/><path d="M27.1 38.2c0-8 6.4-14.2 14.5-14.2 7.8 0 14.2 6.5 14.2 14.3s-6.7 14.5-14.4 14.4c-8.1-.1-14.3-6.5-14.3-14.5z" fill="#cad4b2"/><linearGradient id="A" gradientUnits="userSpaceOnUse" x1="108.976" y1="125.501" x2="123.331" y2="100.637"><stop offset="0" stop-color="#00a092"/><stop offset=".082" stop-color="#1aa494"/><stop offset=".179" stop-color="#31a896"/><stop offset=".27" stop-color="#3faa98"/><stop offset=".348" stop-color="#44ab98"/><stop offset=".481" stop-color="#7cb49c"/><stop offset=".581" stop-color="#a9bca0"/><stop offset=".661" stop-color="#a6bba0"/><stop offset=".724" stop-color="#9cba9f"/><stop offset=".781" stop-color="#8bb79e"/><stop offset=".835" stop-color="#73b39c"/><stop offset=".887" stop-color="#55ae99"/><stop offset=".937" stop-color="#2fa896"/><stop offset=".985" stop-color="#04a192"/><stop offset=".989" stop-color="#00a092"/></linearGradient><use href="#C" fill="url(#A)"/><use href="#C" fill="#cad4b2"/><path d="M78.6 127.3c-18.7-.1-18.6-28-.2-28.5 11.6.3 22.4-6.1 23.1-18.5-2.3-22 26.8-26.7 28.9-4.6-.7 13.4-10.8 14.1-21.5 15.1-26.2 5.4-5.1 34.7-30.3 36.5z" fill="#8fc3a0"/><g fill="#627c70"><path d="M199.9 73.7c2.4 2.9 3.6 6.7 3.6 11.4 0 13.8-10.3 20.6-30.9 20.6-7.1 0-12.9-.2-17.5-.4h-.1l.8-21.7-.8-50.4 22.4-.1c7 0 12.4 1.5 16.2 4.5 3.9 3 5.8 7.4 5.8 13.2 0 4-.9 7.5-2.8 10.4s-4.5 5.1-8 6.6c5.2 1 8.9 3 11.3 5.9zm-12.5 19.9c3-2.1 4.5-5.2 4.5-9.2 0-6.4-4.2-10.2-12.5-11.3l-13.1.1-.1 9.4.3 13.8c2.9.2 5.6.3 8.1.3 5.5 0 9.8-1 12.8-3.1zm-2.8-49.1c-2-1.6-5.4-2.4-10.2-2.4h-7.6l-.3 22.1 11.6.3c3.3-.8 5.7-2.2 7.3-4.2s2.4-4.7 2.4-8.1c-.2-3.6-1.2-6.2-3.2-7.7z"/><use href="#D"/><path d="M272.2 60.5l11.2 32.9h.8l11.2-31.9 1.9-8h9.9l-17.8 49.1c-1.8 5.1-3.8 9.1-5.9 12.2-2.2 3-4.8 5.4-8 7.2s-7.3 3.3-12.4 4.6h-1c-1.8-1.8-3.4-4-4.7-6.7l.3-1.2c5.3-1 9.5-2.4 12.6-4.3s5.9-4.9 8.4-9.2l-18.8-51.5 10.8-.6 1.5 7.4zm72.9-4.3c3 2.5 4.5 5.9 4.5 10.3 0 1.3-.2 5.8-.7 13.5l-.7 13.1c0 1.4.2 2.4.7 3s1.3.8 2.5.8c.7 0 1.9-.1 3.4-.4l1 .8-1.1 6.3c-2.2 1.3-4.5 2.2-7.1 2.5-2.3-.2-4.2-1.1-5.6-2.5-1.4-1.5-2.3-3.4-2.6-5.8h-.8c-3.8 4-7.7 6.8-11.7 8.4-5.2-.1-9.2-1.4-12.2-4s-4.4-6.2-4.4-10.7c0-6.7 3.6-10.8 10.9-12.5l17.7-3.9.1-6.1c0-2.8-.7-4.9-2.1-6.3s-3.4-2.1-6-2.1c-2.5 0-5.1.6-7.6 1.7-2.5 1.2-5.3 3-8.4 5.4l-.9-.6-1.5-8c6.6-4.5 13.3-6.7 20.2-6.7 5.4.1 9.4 1.4 12.4 3.8zm-20.6 29c-1.3.3-2.3.8-2.9 1.5s-.9 1.8-.9 3.3c0 2.2.6 4 1.9 5.3 1.2 1.3 2.9 1.9 5 1.9 3.5 0 7.3-2.3 11.2-6.8l.3-8.6-14.6 3.4zm74-13.9c.1-2.8-.6-5.1-2-6.7s-3.4-2.4-6-2.4c-4.3 0-8.8 2.2-13.5 6.7v13.7l.7 22.7h-11.4l.7-21.7-.6-29.3 10.9-1-.1 7.5h.8c4.4-3.9 9-6.5 13.8-8 5.8 0 10.1 1.3 13.1 3.9s4.4 6.4 4.3 11.2l-.3 14.6.6 22.7h-11.6l.6-33.9z"/><use href="#D" x="209"/><path d="M503.4 94.6l1.1.8-1.1 7.2c-4.1 1.9-7.9 3.1-11.4 3.4-4.6-.7-8-2.3-10.1-4.7s-3.1-5.8-3.1-10.3l.4-8.1-.1-21.9H472l-.4-.7.6-6.6h6.8v-8.2l10.1-3.8 1 .9-.2 11.1h14.4l.4.8-.6 6.5h-14.5l-.6 28.2c-.1 2.8.4 4.7 1.4 5.8s2.7 1.6 5.1 1.6c2.5 0 5.2-.7 7.9-2z"/></g><defs ><path id="C" d="M116.1 98.8c8.1 0 14.3 6.2 14.3 14.4 0 8-6.3 14.2-14.2 14.3-8 0-14.3-6.4-14.3-14.4 0-8.2 6.2-14.3 14.2-14.3z"/><path id="D" d="M246.4 56.2c3 2.5 4.5 5.9 4.5 10.3 0 1.3-.2 5.8-.7 13.5l-.7 13.1c0 1.4.2 2.4.7 3s1.3.8 2.5.8c.7 0 1.9-.1 3.4-.4l1 .8-1.1 6.3c-2.2 1.3-4.5 2.2-7.1 2.5-2.3-.2-4.2-1.1-5.6-2.5-1.4-1.5-2.3-3.4-2.6-5.8h-.7c-3.8 4-7.7 6.8-11.7 8.4-5.2-.1-9.2-1.4-12.2-4s-4.4-6.2-4.4-10.7c0-6.7 3.6-10.8 10.9-12.5l17.7-3.9.1-6.1c0-2.8-.7-4.9-2.1-6.3s-3.4-2.1-6-2.1c-2.5 0-5.1.6-7.6 1.7-2.5 1.2-5.3 3-8.4 5.4l-.9-.6-1.5-8c6.6-4.5 13.3-6.7 20.2-6.7 5.2.1 9.3 1.4 12.3 3.8zm-20.6 29c-1.3.3-2.3.8-2.9 1.5s-.9 1.8-.9 3.3c0 2.2.6 4 1.9 5.3 1.2 1.3 2.9 1.9 5 1.9 3.5 0 7.3-2.3 11.2-6.8l.3-8.6-14.6 3.4z"/></defs></svg>