<svg xmlns="http://www.w3.org/2000/svg" viewBox="0 0 388.4 55.5" xmlns:v="https://vecta.io/nano"><g fill="#fff"><path d="M22.7 45.4c-2.4 0-4.3-1.9-4.3-4.2a4.33 4.33 0 0 1 4.2-4.4c.8 0 1.5-.1 2.3-.2 2.7-.5 4.3-2.2 4.7-4.9.1-.6.2-1.2.2-1.8 0-2.6 1.9-4.4 4.5-4.5.8 0 1.5 0 2.2-.2 2.7-.7 4.3-2.6 4.6-5.4.1-.6.1-1.2.1-1.9.1-2.2 2.1-4 4.4-3.9 2.2 0 4.1 1.9 4.3 4 .2 2.6-1.8 4.7-4.5 4.7-.8 0-1.5.1-2.2.2-2.6.6-4.1 2.4-4.5 5l-.2 2.3c-.3 2.3-2.1 3.8-4.4 3.8-.8 0-1.6.1-2.4.3-2.7.7-4.3 2.8-4.5 5.6 0 .5 0 1.1-.1 1.7-.3 2.3-2.1 3.8-4.4 3.8zm.1-11.3c-2.3 0-4.3-1.8-4.3-4.1-.1-2.5 1.7-4.5 4.3-4.6.8 0 1.6 0 2.3-.2 2.9-.7 4.6-2.8 4.7-5.9 0-.5 0-1.1.1-1.7.4-2.2 2.3-3.7 4.5-3.6 2.1.1 3.9 1.9 4 4 .2 2.3-1.4 4.2-3.5 4.6-.8.2-1.7.1-2.5.2-3.3.5-5.2 2.7-5.3 6 0 .5 0 1-.1 1.6-.2 2.2-2 3.7-4.2 3.7z"/><path d="M18.5 18.3c0-2.4 1.9-4.3 4.4-4.3 2.4 0 4.3 2 4.3 4.3s-2 4.4-4.4 4.4c-2.5 0-4.3-1.9-4.3-4.4z"/><use href="#B"/><use href="#B"/><path d="M34.1 45.4c-5.7 0-5.7-8.5-.1-8.7 3.5.1 6.8-1.9 7-5.6-.7-6.7 8.1-8.1 8.8-1.4-.2 4.1-3.3 4.3-6.5 4.6-7.9 1.7-1.5 10.6-9.2 11.1zM76 30.1c.7.9 1.1 2 1.1 3.5 0 4.2-3.1 6.3-9.4 6.3-2.2 0-3.9-.1-5.3-.1h0l.2-6.6-.2-15.3h6.8c2.1 0 3.8.5 4.9 1.4 1.2.9 1.8 2.3 1.8 4 0 1.2-.3 2.3-.9 3.2s-1.4 1.6-2.4 2c1.5.1 2.7.7 3.4 1.6zm-3.8 6.1c.9-.6 1.4-1.6 1.4-2.8 0-1.9-1.3-3.1-3.8-3.4h-4v2.9l.1 4.2c.9.1 1.7.1 2.5.1 1.6-.1 2.9-.4 3.8-1zm-.9-15c-.6-.5-1.6-.7-3.1-.7h-2.3l-.1 6.7 3.5.1a3.73 3.73 0 0 0 2.2-1.3c.5-.6.7-1.4.7-2.5.1-1-.2-1.8-.9-2.3zm18.8 3.6c.9.8 1.4 1.8 1.4 3.1l-.2 4.1-.2 4c0 .4.1.7.2.9s.4.2.8.2c.2 0 .6 0 1-.1l.3.2-.3 1.9c-.7.4-1.4.7-2.2.8-.7-.1-1.3-.3-1.7-.8s-.7-1-.8-1.8h-.2c-1.2 1.2-2.3 2.1-3.6 2.6-1.6 0-2.8-.4-3.7-1.2s-1.3-1.9-1.3-3.3c0-2 1.1-3.3 3.3-3.8l5.4-1.2v-1.9c0-.9-.2-1.5-.6-1.9s-1-.6-1.8-.6-1.6.2-2.3.5c-.8.4-1.6.9-2.6 1.6l-.3-.2-.5-2.4c2-1.4 4-2 6.1-2 1.7.2 2.9.6 3.8 1.3zm-6.2 8.8c-.4.1-.7.2-.9.5a1.49 1.49 0 0 0-.3 1c0 .7.2 1.2.6 1.6s.9.6 1.5.6c1.1 0 2.2-.7 3.4-2.1l.1-2.6-4.4 1zM98 26.1l3.4 10h.2l3.4-9.7.6-2.4h3l-5.4 14.9c-.5 1.6-1.2 2.8-1.8 3.7-.7.9-1.5 1.6-2.4 2.2a18.03 18.03 0 0 1-3.8 1.4h-.3c-.5-.5-1-1.2-1.4-2l.1-.4c1.6-.3 2.9-.7 3.8-1.3s1.8-1.5 2.6-2.8L94.2 24l3.3-.2.5 2.3zm22.1-1.3c.9.8 1.4 1.8 1.4 3.1l-.2 4.1-.2 4c0 .4.1.7.2.9s.4.2.8.2c.2 0 .6 0 1-.1l.3.2-.3 1.9c-.7.4-1.4.7-2.2.8-.7-.1-1.3-.3-1.7-.8s-.7-1-.8-1.8h-.2c-1.2 1.2-2.3 2.1-3.6 2.6-1.6 0-2.8-.4-3.7-1.2s-1.3-1.9-1.3-3.3c0-2 1.1-3.3 3.3-3.8l5.4-1.2v-1.9c0-.9-.2-1.5-.6-1.9s-1-.6-1.8-.6-1.6.2-2.3.5c-.8.4-1.6.9-2.6 1.6l-.3-.2-.5-2.4c2-1.4 4-2 6.1-2 1.7.2 2.9.6 3.8 1.3zm-6.2 8.8c-.4.1-.7.2-.9.5-.2.2-.3.5-.3 1 0 .7.2 1.2.6 1.6s.9.6 1.5.6c1.1 0 2.2-.7 3.4-2.1l.1-2.6-4.4 1zm22.5-4.2c0-.9-.2-1.6-.6-2-.4-.5-1-.7-1.8-.7-1.3 0-2.7.7-4.1 2v4.2l.2 6.9h-3.5l.2-6.6-.2-8.9 3.3-.3v2.3h.2c1.3-1.2 2.7-2 4.2-2.4 1.8 0 3.1.4 4 1.2s1.3 1.9 1.3 3.4l-.1 4.4.2 6.9h-3.5l.2-10.4zm17.3-4.6c.9.8 1.4 1.8 1.4 3.1l-.2 4.1-.2 4c0 .4.1.7.2.9.2.2.4.2.8.2.2 0 .6 0 1-.1l.3.2-.3 1.9c-.7.4-1.4.7-2.2.8-.7-.1-1.3-.3-1.7-.8s-.7-1-.8-1.8h-.2c-1.2 1.2-2.3 2.1-3.6 2.6-1.6 0-2.8-.4-3.7-1.2s-1.3-1.9-1.3-3.3c0-2 1.1-3.3 3.3-3.8l5.4-1.2v-1.9c0-.9-.2-1.5-.6-1.9s-1-.6-1.8-.6-1.6.2-2.3.5c-.8.4-1.6.9-2.6 1.6l-.3-.2-.5-2.4c2-1.4 4-2 6.1-2 1.6.2 2.9.6 3.8 1.3zm-6.3 8.8c-.4.1-.7.2-.9.5-.2.2-.3.5-.3 1 0 .7.2 1.2.6 1.6s.9.6 1.5.6c1.1 0 2.2-.7 3.4-2.1l.1-2.6-4.4 1zm20.9 2.9l.3.2-.3 2.2c-1.2.6-2.4.9-3.5 1-1.4-.2-2.4-.7-3.1-1.4-.6-.7-.9-1.8-.9-3.1l.1-2.5v-6.7h-2.2l-.1-.2.2-2h2.1v-2.5l3.1-1.2.3.3-.1 3.4h4.4l.1.2-.2 2h-4.4l-.2 8.6c0 .9.1 1.4.4 1.8s.8.5 1.6.5c.7 0 1.6-.2 2.4-.6z"/></g><defs ><path id="B" d="M45.5 36.8c2.5 0 4.3 1.9 4.3 4.4 0 2.4-1.9 4.3-4.3 4.3s-4.3-1.9-4.3-4.4 1.9-4.3 4.3-4.3z"/></defs></svg>