<svg xmlns="http://www.w3.org/2000/svg" viewBox="0 0 512 512" xmlns:v="https://vecta.io/nano"><path d="M443.9 196.9L141.5 10.5C119.6-3 93.1-3.5 70.7 9S34.9 44.3 34.9 70v371.1c0 38.8 31.3 70.6 69.8 70.8h.3c12 0 24.6-3.8 36.3-10.9 9.4-5.7 12.4-18 6.6-27.4-5.7-9.4-18-12.4-27.4-6.6-5.5 3.3-10.8 5.1-15.6 5.1-14.5-.1-30.1-12.5-30.1-30.9V70.1c0-11 5.7-20.8 15.4-26.2 9.6-5.4 21-5.1 30.3.6l302.4 186.4c9.1 5.6 14.3 14.9 14.3 25.6s-5.3 20-14.4 25.6L204.1 415.9c-9.4 5.8-12.4 18-6.6 27.5 5.8 9.4 18 12.4 27.5 6.6l218.6-133.9c20.9-12.8 33.5-35 33.5-59.5.1-24.5-12.4-46.8-33.2-59.7z" fill="#fff"/></svg>