<?xml version="1.0" encoding="utf-8"?>
<!-- Generator: Adobe Illustrator 24.1.0, SVG Export Plug-In . SVG Version: 6.00 Build 0)  -->
<svg version="1.1" id="Capa_1" xmlns="http://www.w3.org/2000/svg" xmlns:xlink="http://www.w3.org/1999/xlink" x="0px" y="0px"
	 viewBox="0 0 512 512" style="enable-background:new 0 0 512 512;" xml:space="preserve">
<style type="text/css">
	.st0{fill:#FFFFFF;}
</style>
<g>
	<g>
		<path class="st0" d="M443.9,196.9L141.5,10.5C119.6-3,93.1-3.5,70.7,9c-22.4,12.5-35.8,35.3-35.8,61v371.1
			c0,38.8,31.3,70.6,69.8,70.8c0.1,0,0.2,0,0.3,0c12,0,24.6-3.8,36.3-10.9c9.4-5.7,12.4-18,6.6-27.4c-5.7-9.4-18-12.4-27.4-6.6
			c-5.5,3.3-10.8,5.1-15.6,5.1c-14.5-0.1-30.1-12.5-30.1-30.9V70.1c0-11,5.7-20.8,15.4-26.2c9.6-5.4,21-5.1,30.3,0.6l302.4,186.4
			c9.1,5.6,14.3,14.9,14.3,25.6c0,10.7-5.3,20-14.4,25.6L204.1,415.9c-9.4,5.8-12.4,18-6.6,27.5c5.8,9.4,18,12.4,27.5,6.6
			l218.6-133.9c20.9-12.8,33.5-35,33.5-59.5C477.2,232.1,464.7,209.8,443.9,196.9z"/>
	</g>
</g>
</svg>
